<?xml version="1.0" encoding="UTF-8" standalone="no"?>
<!DOCTYPE svg PUBLIC "-//W3C//DTD SVG 1.1//EN" "http://www.w3.org/Graphics/SVG/1.1/DTD/svg11.dtd">
<svg version="1.1" xmlns="http://www.w3.org/2000/svg" xmlns:xlink="http://www.w3.org/1999/xlink" preserveAspectRatio="xMidYMid meet" viewBox="0 0 640 640" width="300" height="300"><defs><path d="M146.08 292.17L116.46 256.18L211.43 264.69L153.93 292.17L195.13 149.42L236.59 196.61L207.19 256.18L285.33 252.9L283.01 171.79L246.65 198.93L293.84 258.33" id="bjvTCuZhb"></path><path d="M170.69 19.06L113.01 75.93L79.98 113.73L96.85 181.55L109.72 260.05" id="j4ksgzTr8"></path><path d="M551.8 636.4C551.8 636.4 519.47 637.14 512.89 638.24C512.89 638.24 492.61 637.5 492.61 632.56C492.61 632.56 506.86 624.34 506.86 624.34C506.86 624.34 527.14 613.38 527.69 612.83C528.24 612.28 551.25 610.09 551.25 610.09C551.36 615.35 557.28 635.3 551.8 636.4Z" id="a13BN0RLAm"></path><path d="M546.32 461.56C546.32 461.56 544.68 480.2 544.68 481.84C544.68 481.84 546.32 509.25 544.68 510.34C544.68 510.34 545.77 519.11 545.77 521.85C545.77 521.85 554.54 570.08 552.35 587.62C552.35 587.62 555.64 603.51 554 605.16C554 605.16 552.35 606.8 552.35 610.09C552.35 613.38 534.81 616.12 534.81 616.12C533.53 608.05 527.14 567.67 515.63 495L525.5 458.82C536.6 460.29 543.55 461.2 546.32 461.56Z" id="g11BruNTmT"></path><path d="M190.22 149.42L100.44 185.78L207.97 258.33L116.46 81.34L100.44 178.76L170.69 25.64L173.93 100.27L195.13 145.56L283.01 168.99L251.94 51.17L180.46 100.27L290.25 168.99L310.9 90.5L249.22 58.13L170.69 19.06" id="c464nTgJYh"></path><path d="M546.32 461.56C546.32 461.56 544.68 480.2 544.68 481.84C544.68 481.84 546.32 509.25 544.68 510.34C544.68 510.34 545.77 519.11 545.77 521.85C545.77 521.85 554.54 570.08 552.35 587.62C552.35 587.62 555.64 603.51 554 605.16C554 605.16 552.35 606.8 552.35 610.09C552.35 613.38 534.81 616.12 534.81 616.12C533.53 608.05 527.14 567.67 515.63 495L525.5 458.82C536.6 460.29 543.55 461.2 546.32 461.56Z" id="bDSE02QQj"></path><path d="M543.58 638.59C543.58 638.59 511.25 637.34 504.67 638.43C504.67 638.43 484.39 639.69 484.39 634.75C484.39 634.75 498.64 626.53 498.64 626.53C498.64 626.53 518.92 615.57 519.47 615.02C520.01 614.48 543.58 617.76 543.58 617.76C543.58 621.93 549.06 637.5 543.58 638.59Z" id="g3CWCxzPgU"></path><path d="M550.16 463.76C550.16 463.76 533.72 488.42 533.72 489.52C533.72 490.61 549.06 599.68 546.87 606.8C544.68 613.93 545.23 618.31 545.77 619.41C546.32 620.5 540.29 626.53 533.72 626.53C527.14 626.53 517.27 621.6 516.18 617.22C515.08 612.83 517.82 575.02 517.27 567.89C516.73 560.77 513.99 550.35 512.89 548.16C511.79 545.97 505.76 543.77 504.67 537.2C503.57 530.62 494.8 446.77 497.54 444.03C500.28 441.29 551.25 439.64 551.25 439.64C551.04 444.46 557.83 455.54 550.16 463.76Z" id="g1YrA5GwNK"></path><path d="M509.6 276.32C519.89 276.32 528.24 284.66 528.24 294.95C528.24 305.24 519.89 313.58 509.6 313.58C499.31 313.58 490.97 305.24 490.97 294.95C490.97 284.66 499.31 276.32 509.6 276.32Z" id="bdjuNUcs"></path><path d="M520.01 326.74C522.75 328.93 499.19 332.22 499.19 332.22C499.19 332.22 496.45 305.36 495.9 302.62C495.35 299.88 521.11 304.27 521.11 304.27C520.89 308.76 517.27 324.55 520.01 326.74Z" id="d2TO2Bor8R"></path><path d="M529.33 316.87C529.33 316.87 534.26 318.52 532.62 320.16C530.98 321.81 529.33 321.81 531.52 323.45C533.72 325.09 536.46 323.45 534.81 325.09C533.17 326.74 549.61 336.6 548.51 355.24C547.42 373.87 552.35 400.18 548.51 404.56C544.68 408.95 551.25 428.13 550.16 431.97C549.06 435.8 556.74 440.74 553.45 442.38C550.16 444.03 490.97 453.89 489.32 442.38C487.68 430.87 488.77 439.09 487.13 436.35C485.49 433.61 484.94 428.68 486.03 422.65C487.13 416.62 489.87 401.82 488.77 396.34C487.68 390.86 488.77 344.82 492.06 339.34C495.35 333.86 495.9 330.57 495.9 330.57C502.59 327.83 502.48 311.39 529.33 316.87Z" id="cnrbekmNy"></path><path d="M507.41 464.3C507.41 464.3 515.63 495.54 505.22 495.54C505.22 495.54 495.35 463.21 495.35 463.21C497.76 463.43 505 464.09 507.41 464.3Z" id="aqOfdDRk"></path><path d="M507.25 297.78C507.25 297.78 507.25 297.78 507.26 297.78C508.77 297.86 510.29 297.83 511.79 297.69C514.07 297.48 515.02 299.63 515.41 302.45C516.04 307.12 515.15 313.66 516.18 314.68C517.59 316.09 527.9 314.68 531.12 311.47C531.63 311.02 531.96 310.41 532.07 309.75C532.41 307.79 533.38 306 534.82 304.63C536.73 302.56 539.43 300.26 542.49 296.59C547.97 290.02 542.49 289.47 540.84 284.54C539.2 279.6 536.46 277.96 536.46 274.67C536.46 271.38 523.85 268.64 513.44 269.19C503.02 269.74 505.22 282.89 505.22 282.89C505.22 282.89 504.6 284.48 503.86 286.53C502.86 289.1 502.04 291.75 501.42 294.44C501.4 294.61 501.38 294.78 501.38 294.95C501.38 296.54 503.68 297.55 507.25 297.78Z" id="aaVSI4uEDt"></path><path d="M486.58 268.1L501.38 269.19L503.4 277.38L499.25 282.64L489.32 276.32L486.58 273.03L486.58 273.03L486.58 268.1Z" id="a8vghKdAn"></path><path d="M486.58 268.1L501.38 269.19L503.4 277.38L499.25 282.64L489.32 276.32L486.58 273.03L486.58 273.03L486.58 268.1Z" id="d3Q3OW6uJq"></path><path d="M477.81 283.44L487.68 286.18L497.54 292.21L501.42 294.44L507.25 297.78L507.26 297.78L515.41 302.45C524.84 307.86 530.08 310.87 531.12 311.47C531.63 311.02 531.96 310.41 532.07 309.75C532.41 307.79 533.38 306 534.82 304.63C532.76 303.43 522.44 297.39 503.86 286.53L501.38 285.08L486.58 268.09L477.81 283.44Z" id="d5zMcVnWzb"></path><path d="M523.85 365.1C525.5 392.51 524.95 418.27 524.95 418.81C524.95 419.36 517.27 471.43 510.15 471.43C503.02 471.43 497.54 470.33 495.9 467.59C494.26 464.85 500.28 425.39 500.28 425.39C500.28 425.39 503.02 383.74 498.64 370.58C494.26 357.43 493.71 340.44 503.57 338.8C507.63 344.06 522.21 337.7 523.85 365.1Z" id="b1WtCKQIqY"></path><path d="M521.11 362.36C521.11 362.36 522.21 415.53 522.21 416.07C522.21 416.07 514.53 468.69 507.41 468.69C507.41 468.69 494.8 467.59 493.16 464.85C493.16 464.85 497.54 422.65 497.54 422.65C497.54 422.65 500.28 381 495.9 367.84C491.51 354.69 490.97 337.7 500.83 336.06C504.89 341.32 519.47 334.96 521.11 362.36Z" id="a9xg19zNa"></path><path d="M168.2 9.29C173.59 9.29 177.97 13.66 177.97 19.06C177.97 24.45 173.59 28.82 168.2 28.82C162.81 28.82 158.44 24.45 158.44 19.06C158.44 13.66 162.81 9.29 168.2 9.29Z" id="b2tdCgN33b"></path><path d="M290.25 243.14C295.64 243.14 300.01 247.51 300.01 252.9C300.01 258.3 295.64 262.67 290.25 262.67C284.86 262.67 280.49 258.3 280.49 252.9C280.49 247.51 284.86 243.14 290.25 243.14Z" id="bc5DoQ37X"></path><path d="M289.28 159.23C294.67 159.23 299.05 163.6 299.05 168.99C299.05 174.39 294.67 178.76 289.28 178.76C283.89 178.76 279.52 174.39 279.52 168.99C279.52 163.6 283.89 159.23 289.28 159.23Z" id="k1Uwd5HGlz"></path><path d="M96.85 171.79C102.24 171.79 106.61 176.16 106.61 181.55C106.61 186.94 102.24 191.32 96.85 191.32C91.46 191.32 87.09 186.94 87.09 181.55C87.09 176.16 91.46 171.79 96.85 171.79Z" id="a2aDk4J3LY"></path><path d="M310.9 78.66C316.3 78.66 320.67 83.03 320.67 88.42C320.67 93.81 316.3 98.18 310.9 98.18C305.51 98.18 301.14 93.81 301.14 88.42C301.14 83.03 305.51 78.66 310.9 78.66Z" id="b8eCVfWqN"></path><path d="M153.93 282.19C159.32 282.19 163.69 286.57 163.69 291.96C163.69 297.35 159.32 301.72 153.93 301.72C148.54 301.72 144.17 297.35 144.17 291.96C144.17 286.57 148.54 282.19 153.93 282.19Z" id="b1C4ZKXdKZ"></path><path d="M116.46 68.89C121.85 68.89 126.22 73.26 126.22 78.66C126.22 84.05 121.85 88.42 116.46 88.42C111.07 88.42 106.7 84.05 106.7 78.66C106.7 73.26 111.07 68.89 116.46 68.89Z" id="c24fHn1GxA"></path><path d="M113.01 252.9C118.41 252.9 122.78 257.27 122.78 262.67C122.78 268.06 118.41 272.43 113.01 272.43C107.62 272.43 103.25 268.06 103.25 262.67C103.25 257.27 107.62 252.9 113.01 252.9Z" id="bdgLZ8QyJ"></path><path d="M249.22 46.11C254.62 46.11 258.99 50.48 258.99 55.88C258.99 61.27 254.62 65.64 249.22 65.64C243.83 65.64 239.46 61.27 239.46 55.88C239.46 50.48 243.83 46.11 249.22 46.11Z" id="a1d86caP9x"></path><path d="M195.13 135.79C200.52 135.79 204.89 140.17 204.89 145.56C204.89 150.95 200.52 155.32 195.13 155.32C189.74 155.32 185.37 150.95 185.37 145.56C185.37 140.17 189.74 135.79 195.13 135.79Z" id="aFOiPm9tc"></path><path d="M211.43 248.57C216.82 248.57 221.2 252.94 221.2 258.33C221.2 263.72 216.82 268.09 211.43 268.09C206.04 268.09 201.67 263.72 201.67 258.33C201.67 252.94 206.04 248.57 211.43 248.57Z" id="i1wNmRo0RZ"></path><path d="M79.98 103.96C85.37 103.96 89.74 108.33 89.74 113.73C89.74 119.12 85.37 123.49 79.98 123.49C74.58 123.49 70.21 119.12 70.21 113.73C70.21 108.33 74.58 103.96 79.98 103.96Z" id="bCaKhSqbr"></path><path d="M180.46 90.5C185.85 90.5 190.22 94.87 190.22 100.27C190.22 105.66 185.85 110.03 180.46 110.03C175.06 110.03 170.69 105.66 170.69 100.27C170.69 94.87 175.06 90.5 180.46 90.5Z" id="gMCvSc4Q8"></path><path d="M242.18 183.12C247.57 183.12 251.94 187.49 251.94 192.88C251.94 198.27 247.57 202.64 242.18 202.64C236.79 202.64 232.42 198.27 232.42 192.88C232.42 187.49 236.79 183.12 242.18 183.12Z" id="ecvtHkmEP"></path><path d="" id="bflxq7Yqe"></path></defs><g><g><g><g><use xlink:href="#bjvTCuZhb" opacity="1" fill-opacity="0" stroke="#000000" stroke-width="1.3" stroke-opacity="0.46"></use></g></g><g><g><use xlink:href="#j4ksgzTr8" opacity="1" fill-opacity="0" stroke="#000306" stroke-width="1.3" stroke-opacity="0.46"></use></g></g><g><use xlink:href="#a13BN0RLAm" opacity="1" fill="#2f2e41" fill-opacity="1"></use><g><use xlink:href="#a13BN0RLAm" opacity="1" fill-opacity="0" stroke="#000000" stroke-width="1" stroke-opacity="0"></use></g></g><g><use xlink:href="#g11BruNTmT" opacity="1" fill="#575a89" fill-opacity="1"></use><g><use xlink:href="#g11BruNTmT" opacity="1" fill-opacity="0" stroke="#000000" stroke-width="1" stroke-opacity="0"></use></g></g><g><g><use xlink:href="#c464nTgJYh" opacity="1" fill-opacity="0" stroke="#000306" stroke-width="1.3" stroke-opacity="0.43"></use></g></g><g><use xlink:href="#bDSE02QQj" opacity="1" fill="#000000" fill-opacity="1"></use><g><use xlink:href="#bDSE02QQj" opacity="1" fill-opacity="0" stroke="#000000" stroke-width="1" stroke-opacity="0"></use></g></g><g><use xlink:href="#g3CWCxzPgU" opacity="1" fill="#2f2e41" fill-opacity="1"></use><g><use xlink:href="#g3CWCxzPgU" opacity="1" fill-opacity="0" stroke="#000000" stroke-width="1" stroke-opacity="0"></use></g></g><g><use xlink:href="#g1YrA5GwNK" opacity="1" fill="#575a89" fill-opacity="1"></use><g><use xlink:href="#g1YrA5GwNK" opacity="1" fill-opacity="0" stroke="#000000" stroke-width="1" stroke-opacity="0"></use></g></g><g><use xlink:href="#bdjuNUcs" opacity="1" fill="#ffb9b9" fill-opacity="1"></use><g><use xlink:href="#bdjuNUcs" opacity="1" fill-opacity="0" stroke="#000000" stroke-width="1" stroke-opacity="0"></use></g></g><g><use xlink:href="#d2TO2Bor8R" opacity="1" fill="#ffb9b9" fill-opacity="1"></use><g><use xlink:href="#d2TO2Bor8R" opacity="1" fill-opacity="0" stroke="#000000" stroke-width="1" stroke-opacity="0"></use></g></g><g><use xlink:href="#cnrbekmNy" opacity="1" fill="#c61d19" fill-opacity="1"></use><g><use xlink:href="#cnrbekmNy" opacity="1" fill-opacity="0" stroke="#000000" stroke-width="1" stroke-opacity="0"></use></g></g><g><use xlink:href="#aqOfdDRk" opacity="1" fill="#ffb9b9" fill-opacity="1"></use><g><use xlink:href="#aqOfdDRk" opacity="1" fill-opacity="0" stroke="#000000" stroke-width="1" stroke-opacity="0"></use></g></g><g><use xlink:href="#aaVSI4uEDt" opacity="1" fill="#2f2e41" fill-opacity="1"></use><g><use xlink:href="#aaVSI4uEDt" opacity="1" fill-opacity="0" stroke="#000000" stroke-width="1" stroke-opacity="0"></use></g></g><g><use xlink:href="#a8vghKdAn" opacity="1" fill="#575a89" fill-opacity="1"></use><g><use xlink:href="#a8vghKdAn" opacity="1" fill-opacity="0" stroke="#000000" stroke-width="1" stroke-opacity="0"></use></g></g><g><use xlink:href="#d3Q3OW6uJq" opacity="1" fill="#000000" fill-opacity="1"></use><g><use xlink:href="#d3Q3OW6uJq" opacity="1" fill-opacity="0" stroke="#000000" stroke-width="1" stroke-opacity="0"></use></g></g><g><use xlink:href="#d5zMcVnWzb" opacity="1" fill="#575a89" fill-opacity="1"></use><g><use xlink:href="#d5zMcVnWzb" opacity="1" fill-opacity="0" stroke="#000000" stroke-width="1" stroke-opacity="0"></use></g></g><g><use xlink:href="#b1WtCKQIqY" opacity="1" fill="#000000" fill-opacity="1"></use><g><use xlink:href="#b1WtCKQIqY" opacity="1" fill-opacity="0" stroke="#000000" stroke-width="1" stroke-opacity="0"></use></g></g><g><use xlink:href="#a9xg19zNa" opacity="1" fill="#c61d19" fill-opacity="1"></use><g><use xlink:href="#a9xg19zNa" opacity="1" fill-opacity="0" stroke="#000000" stroke-width="1" stroke-opacity="0"></use></g></g><g><use xlink:href="#b2tdCgN33b" opacity="1" fill="#c61d19" fill-opacity="1"></use><g><use xlink:href="#b2tdCgN33b" opacity="1" fill-opacity="0" stroke="#000000" stroke-width="1" stroke-opacity="0"></use></g></g><g><use xlink:href="#bc5DoQ37X" opacity="1" fill="#c61d19" fill-opacity="1"></use><g><use xlink:href="#bc5DoQ37X" opacity="1" fill-opacity="0" stroke="#000000" stroke-width="1" stroke-opacity="0"></use></g></g><g><use xlink:href="#k1Uwd5HGlz" opacity="1" fill="#52a6fc" fill-opacity="1"></use><g><use xlink:href="#k1Uwd5HGlz" opacity="1" fill-opacity="0" stroke="#000000" stroke-width="1" stroke-opacity="0"></use></g></g><g><use xlink:href="#a2aDk4J3LY" opacity="1" fill="#c61d19" fill-opacity="1"></use><g><use xlink:href="#a2aDk4J3LY" opacity="1" fill-opacity="0" stroke="#000000" stroke-width="1" stroke-opacity="0"></use></g></g><g><use xlink:href="#b8eCVfWqN" opacity="1" fill="#c61d19" fill-opacity="1"></use><g><use xlink:href="#b8eCVfWqN" opacity="1" fill-opacity="0" stroke="#000000" stroke-width="1" stroke-opacity="0"></use></g></g><g><use xlink:href="#b1C4ZKXdKZ" opacity="1" fill="#c61d19" fill-opacity="1"></use><g><use xlink:href="#b1C4ZKXdKZ" opacity="1" fill-opacity="0" stroke="#000000" stroke-width="1" stroke-opacity="0"></use></g></g><g><use xlink:href="#c24fHn1GxA" opacity="1" fill="#52a6fc" fill-opacity="1"></use><g><use xlink:href="#c24fHn1GxA" opacity="1" fill-opacity="0" stroke="#000000" stroke-width="1" stroke-opacity="0"></use></g></g><g><use xlink:href="#bdgLZ8QyJ" opacity="1" fill="#52a6fc" fill-opacity="1"></use><g><use xlink:href="#bdgLZ8QyJ" opacity="1" fill-opacity="0" stroke="#000000" stroke-width="1" stroke-opacity="0"></use></g></g><g><use xlink:href="#a1d86caP9x" opacity="1" fill="#52a6fc" fill-opacity="1"></use><g><use xlink:href="#a1d86caP9x" opacity="1" fill-opacity="0" stroke="#000000" stroke-width="1" stroke-opacity="0"></use></g></g><g><use xlink:href="#aFOiPm9tc" opacity="1" fill="#52a6fc" fill-opacity="1"></use><g><use xlink:href="#aFOiPm9tc" opacity="1" fill-opacity="0" stroke="#000000" stroke-width="1" stroke-opacity="0"></use></g></g><g><use xlink:href="#i1wNmRo0RZ" opacity="1" fill="#52a6fc" fill-opacity="1"></use><g><use xlink:href="#i1wNmRo0RZ" opacity="1" fill-opacity="0" stroke="#000000" stroke-width="1" stroke-opacity="0"></use></g></g><g><use xlink:href="#bCaKhSqbr" opacity="1" fill="#52a6fc" fill-opacity="1"></use><g><use xlink:href="#bCaKhSqbr" opacity="1" fill-opacity="0" stroke="#000000" stroke-width="1" stroke-opacity="0"></use></g></g><g><use xlink:href="#gMCvSc4Q8" opacity="1" fill="#c61d19" fill-opacity="1"></use><g><use xlink:href="#gMCvSc4Q8" opacity="1" fill-opacity="0" stroke="#000000" stroke-width="1" stroke-opacity="0"></use></g></g><g><use xlink:href="#ecvtHkmEP" opacity="1" fill="#c61d19" fill-opacity="1"></use><g><use xlink:href="#ecvtHkmEP" opacity="1" fill-opacity="0" stroke="#000000" stroke-width="1" stroke-opacity="0"></use></g></g><g><g><use xlink:href="#bflxq7Yqe" opacity="1" fill-opacity="0" stroke="#0081f9" stroke-width="1.3" stroke-opacity="1"></use></g></g></g></g></svg>